<?xml version="1.0" ?><!DOCTYPE svg  PUBLIC '-//W3C//DTD SVG 1.1//EN'  'http://www.w3.org/Graphics/SVG/1.1/DTD/svg11.dtd'><svg enable-background="new 0 0 512 411.883" height="411.883px" id="Layer_1" version="1.1" viewBox="0 0 512 411.883" width="512px" xml:space="preserve" xmlns="http://www.w3.org/2000/svg" xmlns:xlink="http://www.w3.org/1999/xlink"><g id="meanicons_x5F_9"><path d="M512,348.922h-42.184v-71.603h-38.224v-48.074h69.617v-23.542H363.879v15.707h-16.646v-15.707H199.141v15.707h-69.96   l3.634-31.406h4.503v-33.307h-10.18c3.556-12.645,11.177-32.688,24.904-39.248c20.602-9.857,19.613,19.621,67.701-2.976   c48.032-22.538,42.153-6.883,57.858,0c15.692,6.89,28.396,15.714,61.801-1.937c33.322-17.677,32.348,5.9,36.246,5.9   c3.936,0,40.23,20.566,54.929-24.524c14.725-45.099-27.478-66.705-43.155-66.705c-15.672,0-29.387,21.606-50.004,5.9   c-20.609-15.757-28.445-12.789-58.875-6.89c-30.397,5.898-33.344-2.926-47.021-9.8c-13.778-6.848-50.052-34.347-77.544,1.979   c-27.414,36.268-4.859,46.081-17.648,53.909c-12.762,7.878-29.393,23.542-30.383,34.346c-0.989,10.796-9.807,26.46-1.979,47.07   c0.443,1.089,0.846,2.028,1.277,2.974H88.313v33.307h3.132l3.111,31.406H55.923l-30.016,47.086l29.428,48.06H27.506v32.367H0   v17.643h24.224c-3.484,4.709-5.586,10.559-5.586,16.882c0,15.714,12.739,28.438,28.447,28.438   c15.705,0,28.467-12.725,28.467-28.438c0-6.323-2.094-12.173-5.592-16.882h30.259c-0.022,0.745-0.094,1.411-0.094,2.164   c0,23.822,19.292,43.155,43.157,43.155c23.851,0,43.17-19.333,43.17-43.155c0-0.753-0.1-1.419-0.1-2.164h15.899   c-0.028,0.745-0.094,1.411-0.094,2.164c0,23.822,19.321,43.155,43.158,43.155c23.819,0,43.134-19.333,43.134-43.155   c0-0.753-0.064-1.419-0.137-2.164h15.942c-0.049,0.745-0.094,1.411-0.094,2.164c0,23.822,19.313,43.155,43.164,43.155   c23.821,0,43.104-19.333,43.104-43.155c0-0.753-0.029-1.419-0.043-2.164h32.037c-3.499,4.709-5.557,10.559-5.557,16.882   c0,15.714,12.697,28.438,28.433,28.438c15.679,0,28.438-12.725,28.438-28.438c0-6.323-2.101-12.173-5.541-16.882H512V348.922z"/></g><g id="Layer_1_1_"/></svg>